<svg width="254" height="281" viewBox="0 0 254 281" fill="none" xmlns="http://www.w3.org/2000/svg">
<rect y="4" width="238" height="238" rx="119" fill="#6190C5"/>
<path d="M111.747 176H91.4975V68.75H132.747C139.947 68.75 146.247 70.15 151.647 72.95C157.147 75.65 161.397 79.45 164.397 84.35C167.497 89.25 169.047 95 169.047 101.6C169.047 108.1 167.497 113.85 164.397 118.85C161.397 123.75 157.147 127.6 151.647 130.4C146.247 133.1 139.947 134.45 132.747 134.45H110.247V117.05H132.747C137.647 117.05 141.497 115.65 144.297 112.85C147.197 110.05 148.647 106.3 148.647 101.6C148.647 96.7 147.197 92.9 144.297 90.2C141.497 87.4 137.647 86 132.747 86H111.747V176Z" fill="white"/>
<path d="M118.5 281L82.5599 223.25L154.44 223.25L118.5 281Z" fill="#6190C5"/>
</svg>
