<svg width="103" height="117" viewBox="0 0 103 117" fill="none" xmlns="http://www.w3.org/2000/svg">
<circle cx="51.5" cy="51.5" r="51" fill="#D9D9D9" stroke="black"/>
<path d="M80.6302 62.0437C80.1912 62.0437 79.76 62.0766 79.3375 62.1366L57.4447 15.6433L61.4934 13.9299C62.864 13.35 63.5052 11.7686 62.9252 10.398C62.3453 9.02742 60.7637 8.38605 59.3933 8.96652L45.6813 14.7691C44.3107 15.349 43.6696 16.9306 44.2496 18.301C44.6845 19.3288 45.6824 19.9462 46.7326 19.9462C47.0827 19.9462 47.4389 19.8775 47.7817 19.7322L52.4775 17.745L71.8142 58.8104C67.9738 60.9409 65.2908 64.7073 64.4853 68.9722H35.2517C34.5163 63.7522 31.6441 59.5811 27.3884 57.7691C26.0186 57.1859 24.4361 57.8235 23.8533 59.1931C23.2701 60.5623 23.9077 62.145 25.2769 62.7282C27.8826 63.8376 29.244 66.3746 29.7766 68.9722H28.6159C27.6153 64.9962 24.0106 62.0434 19.7285 62.0434C14.6751 62.0437 10.5641 66.155 10.5641 71.2081C10.5641 76.2612 14.6751 80.3725 19.7285 80.3725C23.674 80.3725 27.0448 77.8663 28.3335 74.3622H66.9274C68.4157 74.3622 69.6222 73.1554 69.6222 71.6673C69.6222 68.4084 71.3628 65.3799 74.1202 63.7083L74.4627 64.4356C72.6227 66.1129 71.466 68.5278 71.466 71.2078C71.466 76.261 75.577 80.3722 80.6304 80.3722C85.6838 80.3722 89.7949 76.261 89.7949 71.2078C89.7949 66.1547 85.6833 62.0437 80.6302 62.0437ZM19.7285 74.9825C17.647 74.9825 15.9538 73.2893 15.9538 71.2078C15.9538 69.1263 17.647 67.4331 19.7285 67.4331C20.9727 67.4331 22.0749 68.0408 22.7629 68.9722H19.7285C18.2401 68.9722 17.0336 70.1789 17.0336 71.667C17.0336 73.1551 18.2401 74.3619 19.7285 74.3619H21.7965C21.2018 74.7532 20.492 74.9825 19.7285 74.9825ZM80.6302 74.9825C78.5487 74.9825 76.8555 73.2893 76.8555 71.2078C76.8555 70.7737 76.9328 70.3581 77.0684 69.9695L78.1919 72.3558C78.6513 73.3314 79.6204 73.9032 80.6318 73.9032C81.0164 73.9032 81.4068 73.8205 81.7779 73.6459C83.1245 73.0118 83.7021 71.4062 83.068 70.0598L81.9445 67.674C83.3787 68.2095 84.4043 69.5893 84.4043 71.2078C84.4049 73.2893 82.7117 74.9825 80.6302 74.9825Z" fill="#102542"/>
<rect x="43.2055" y="15.802" width="20.2863" height="5.39269" rx="2.69634" transform="rotate(-22.853 43.2055 15.802)" fill="#102542"/>
<rect x="59.5598" y="32.8346" width="5.41621" height="16.7336" transform="rotate(-25.2938 59.5598 32.8346)" fill="#F3FFB9"/>
<rect x="47.8372" y="13.848" width="0.548057" height="5.39643" transform="rotate(-22.4215 47.8372 13.848)" fill="#F3FFB9"/>
<rect x="57.2896" y="9.85254" width="0.548057" height="5.39643" transform="rotate(-22.4215 57.2896 9.85254)" fill="#F3FFB9"/>
<path d="M23.9045 61.4483L26.8841 57.5883L27.4693 57.772L27.883 57.9811L28.0209 58.0508L28.1588 58.1205L28.7797 58.4682L25.3266 62.7349L25.2588 62.7349L24.8525 62.5317L24.4462 62.1932L24.1754 61.8546L23.9045 61.4483Z" fill="#F3FFB9"/>
<path d="M26.6812 57.5204C25.3268 57.2495 23.5661 58.4684 23.6339 60.3645L23.6339 60.4323L23.6339 60.8386L23.7693 61.2449L23.9724 61.5158C25.9363 59.2133 25.5977 59.4165 27.0875 57.6558L26.6812 57.5204Z" fill="#F3FFB9"/>
<path fill-rule="evenodd" clip-rule="evenodd" d="M23.3805 78.9313C25.122 78.061 26.5097 76.5999 27.3042 74.8005L26.1143 74.2578C25.0414 76.7244 22.6128 78.4456 19.7887 78.4456C15.9709 78.4456 12.876 75.3001 12.876 71.4198C12.876 67.5396 15.9709 64.394 19.7887 64.394C22.7966 64.394 25.3559 66.3466 26.3063 69.0727L27.5973 68.6301C26.9772 66.7613 25.7344 65.1711 24.0836 64.1343C22.4328 63.0975 20.4775 62.6791 18.5555 62.9514C16.6335 63.2238 14.8654 64.1696 13.5565 65.6258C12.2476 67.0819 11.4801 68.9569 11.3865 70.9269C11.2929 72.8969 11.8791 74.8383 13.0439 76.4159C14.2086 77.9934 15.8789 79.108 17.7661 79.5673C19.6533 80.0266 21.6391 79.8016 23.3805 78.9313Z" fill="#D9D9D9"/>
<path fill-rule="evenodd" clip-rule="evenodd" d="M85.9354 64.7918C84.4459 63.5494 82.5787 62.8704 80.6518 62.8704V64.3945C80.6795 64.3942 80.7073 64.394 80.7351 64.394C84.5529 64.394 87.6478 67.5396 87.6478 71.4198C87.6478 75.3 84.5529 78.4456 80.7351 78.4456C76.9173 78.4456 73.8223 75.3 73.8223 71.4198C73.8223 69.4797 74.5961 67.7232 75.847 66.4518L74.7626 65.3496C73.4001 66.7344 72.5522 68.5565 72.3633 70.5055C72.1744 72.4544 72.6563 74.4096 73.7268 76.0379C74.7973 77.6663 76.3902 78.867 78.2341 79.4355C80.078 80.004 82.0588 79.9051 83.839 79.1556C85.6192 78.4062 87.0886 77.0526 87.997 75.3254C88.9053 73.5983 89.1963 71.6045 88.8204 69.6838C88.4444 67.763 87.4249 66.0342 85.9354 64.7918Z" fill="#D9D9D9"/>
<path d="M65.0391 34.4183C65.1433 34.6404 65.2 34.8524 65.2092 35.0543C65.222 35.2574 65.1914 35.4529 65.1174 35.6407L64.5745 35.5286C64.6345 35.3738 64.6627 35.2236 64.6592 35.078C64.6593 34.9336 64.6237 34.7854 64.5523 34.6333C64.5105 34.544 64.4668 34.4761 64.4215 34.4296C64.3761 34.3831 64.3309 34.3557 64.2858 34.3474C64.2407 34.3391 64.1964 34.3452 64.1529 34.3655C64.1022 34.3893 64.0695 34.4326 64.0548 34.4955C64.0436 34.5596 64.0509 34.6505 64.0765 34.768L64.1745 35.2125C64.231 35.4775 64.2322 35.6905 64.1781 35.8514C64.1239 36.0123 64.0087 36.134 63.8324 36.2167C63.6634 36.2959 63.4994 36.3198 63.3403 36.2884C63.1837 36.2558 63.0395 36.1776 62.9078 36.0538C62.7786 35.9288 62.6681 35.7686 62.5764 35.573C62.5017 35.4137 62.4473 35.2536 62.4131 35.0929C62.3814 34.9311 62.371 34.7769 62.3818 34.6304C62.3927 34.484 62.4217 34.3511 62.4688 34.2318L63.0263 34.3371C62.9846 34.4303 62.9563 34.5334 62.9415 34.6463C62.9303 34.7606 62.9333 34.877 62.9506 34.9955C62.969 35.1165 63.0037 35.2313 63.0547 35.3399C63.0943 35.4244 63.1356 35.4905 63.1785 35.5381C63.2226 35.5881 63.2677 35.6185 63.314 35.6292C63.3603 35.6399 63.4063 35.6345 63.4522 35.613C63.5029 35.5892 63.5367 35.5513 63.5535 35.4992C63.5727 35.446 63.5706 35.3631 63.5472 35.2503L63.4379 34.7627C63.4058 34.6127 63.3903 34.4728 63.3912 34.3428C63.3956 34.214 63.4272 34.0991 63.4858 33.998C63.5468 33.8957 63.6437 33.8135 63.7765 33.7512C63.9262 33.681 64.0782 33.6598 64.2326 33.6876C64.3894 33.7142 64.5379 33.7889 64.6779 33.9117C64.818 34.0346 64.9384 34.2034 65.0391 34.4183ZM63.269 36.9559L65.6593 35.8352L66.5321 37.6967L66.0504 37.9226L65.4697 36.684L64.9844 36.9115L65.4462 37.8966L64.9935 38.1089L64.5316 37.1238L64.0427 37.353L64.6455 38.6387L64.1639 38.8645L63.269 36.9559ZM65.3591 41.4137L65.0585 40.7727L65.52 40.353L65.1363 39.5345L64.5168 39.6173L64.223 38.9908L67.0073 38.7103L67.3571 39.4563L65.3591 41.4137ZM65.6143 39.4518L65.8894 40.0385L66.7189 39.2917L65.6143 39.4518ZM65.4894 41.6917L67.8797 40.5709L68.4248 41.7335C68.5605 42.0292 68.6056 42.2731 68.5602 42.4652C68.5172 42.6562 68.3919 42.8004 68.1843 42.8977C68.0491 42.9611 67.9133 42.9762 67.7769 42.9429C67.643 42.9085 67.5243 42.8155 67.4207 42.6637L67.4171 42.6654C67.479 42.8602 67.479 43.0267 67.417 43.1647C67.3587 43.304 67.257 43.4076 67.1122 43.4755C66.9069 43.5717 66.7136 43.574 66.5322 43.4824C66.3532 43.3896 66.1958 43.1983 66.06 42.9086L65.4894 41.6917ZM66.2095 42.0874L66.4489 42.5981C66.5021 42.7115 66.5647 42.7853 66.6366 42.8193C66.7085 42.8533 66.7879 42.85 66.8749 42.8092C66.9594 42.7696 67.0103 42.7118 67.0278 42.6359C67.0476 42.5589 67.0309 42.4636 66.9777 42.3501L66.7383 41.8395L66.2095 42.0874ZM67.1837 41.6306L67.396 42.0833C67.5001 42.3055 67.6391 42.3758 67.813 42.2943C67.9868 42.2128 68.0217 42.0609 67.9175 41.8388L67.7053 41.3861L67.1837 41.6306Z" fill="#6C5DC0"/>
<path d="M50.1795 116.205L38.7435 96.3975H61.6155L50.1795 116.205Z" fill="#D9D9D9"/>
<path d="M50.1761 115.921L60.7435 100.359" stroke="black"/>
<path d="M51.1417 115.836L40.1404 99.8369" stroke="black"/>
</svg>
